<?xml version="1.0" encoding="UTF-8" standalone="no"?>
<svg
   xmlns:dc="http://purl.org/dc/elements/1.1/"
   xmlns:cc="http://creativecommons.org/ns#"
   xmlns:rdf="http://www.w3.org/1999/02/22-rdf-syntax-ns#"
   xmlns:svg="http://www.w3.org/2000/svg"
   xmlns="http://www.w3.org/2000/svg"
   xmlns:sodipodi="http://sodipodi.sourceforge.net/DTD/sodipodi-0.dtd"
   xmlns:inkscape="http://www.inkscape.org/namespaces/inkscape"
   version="1.1"
   id="svg7616"
   width="8.9389238"
   height="10.693555">
  <metadata
     id="metadata7622">
    <rdf:RDF>
      <cc:Work
         rdf:about="">
        <dc:format>image/svg+xml</dc:format>
        <dc:type
           rdf:resource="http://purl.org/dc/dcmitype/StillImage" />
      </cc:Work>
    </rdf:RDF>
  </metadata>
  <defs
     id="defs7620">
    <linearGradient
       x1="0"
       y1="0"
       x2="1"
       y2="0"
       gradientUnits="userSpaceOnUse"
       gradientTransform="matrix(5.3886147,0,0,-5.3886147,164.29582,45.542629)"
       spreadMethod="pad"
       id="linearGradient2896">
      <stop
         style="stop-opacity:1;stop-color:#bb7d2b"
         offset="0"
         id="stop2892" />
      <stop
         style="stop-opacity:1;stop-color:#fae784"
         offset="1"
         id="stop2894" />
    </linearGradient>
    <linearGradient
       x1="0"
       y1="0"
       x2="1"
       y2="0"
       gradientUnits="userSpaceOnUse"
       gradientTransform="matrix(3.2814095,0,0,-3.2814095,165.34419,49.759098)"
       spreadMethod="pad"
       id="linearGradient2916">
      <stop
         style="stop-opacity:1;stop-color:#bb7d2b"
         offset="0"
         id="stop2912" />
      <stop
         style="stop-opacity:1;stop-color:#fae784"
         offset="1"
         id="stop2914" />
    </linearGradient>
    <linearGradient
       x1="0"
       y1="0"
       x2="1"
       y2="0"
       gradientUnits="userSpaceOnUse"
       gradientTransform="matrix(3.5027843,0,0,-3.5027843,162.97961,46.589336)"
       spreadMethod="pad"
       id="linearGradient2936">
      <stop
         style="stop-opacity:1;stop-color:#bb7d2b"
         offset="0"
         id="stop2932" />
      <stop
         style="stop-opacity:1;stop-color:#fae784"
         offset="1"
         id="stop2934" />
    </linearGradient>
  </defs>
  <sodipodi:namedview
     pagecolor="#ffffff"
     bordercolor="#666666"
     borderopacity="1"
     objecttolerance="10"
     gridtolerance="10"
     guidetolerance="10"
     inkscape:pageopacity="0"
     inkscape:pageshadow="2"
     inkscape:window-width="640"
     inkscape:window-height="480"
     id="namedview7618" />
  <inkscape:clipboard
     style="font-variation-settings:normal;opacity:1;vector-effect:none;fill:#000000;fill-opacity:1;stroke-width:1.3333333;stroke-linecap:butt;stroke-linejoin:miter;stroke-miterlimit:4;stroke-dasharray:none;stroke-dashoffset:0;stroke-opacity:1;stop-color:#000000;stop-opacity:1"
     min="217.3064,1931.2253"
     max="226.24533,1941.9189" />
  <g
     id="g7614"
     transform="matrix(1.3333333,0,0,-1.3333333,-217.3064,68.534665)">
    <g
       id="g2880">
      <g
         id="g2882">
        <g
           id="g2888">
          <g
             id="g2890">
            <path
               d="m 166.784,47.704 c -0.125,-10e-4 -0.25,-10e-4 -0.374,0 v 0 c -0.081,0 -0.162,-0.004 -0.241,-0.015 v 0 c -0.537,-0.073 -0.989,-0.303 -1.35,-0.71 v 0 c -0.035,-0.039 -0.038,-0.062 -0.01,-0.105 v 0 c 0.084,-0.125 0.168,-0.25 0.244,-0.381 v 0 c 0.039,-0.068 0.072,-0.074 0.138,-0.034 v 0 c 0.351,0.209 0.834,0.116 1.069,-0.216 v 0 c 0.193,-0.273 0.377,-0.555 0.549,-0.843 v 0 c 0.214,-0.355 0.156,-0.771 -0.143,-1.044 v 0 c -0.189,-0.172 -0.411,-0.302 -0.651,-0.392 v 0 c -0.501,-0.189 -0.96,-0.086 -1.39,0.208 v 0 c -0.109,0.074 -0.209,0.159 -0.328,0.252 v 0 c 0,-0.175 -0.003,-0.333 0.002,-0.491 v 0 c 0,-0.021 0.027,-0.049 0.049,-0.06 v 0 c 0.105,-0.052 0.21,-0.104 0.319,-0.146 v 0 c 0.578,-0.216 1.181,-0.316 1.793,-0.338 v 0 c 0.384,-0.014 0.771,-0.01 1.155,0.012 v 0 c 0.689,0.038 1.357,0.184 1.994,0.464 v 0 c 0.056,0.024 0.075,0.056 0.075,0.116 v 0 c -0.002,0.524 -0.001,1.047 -0.001,1.571 v 0 c -0.001,0.238 -0.03,0.472 -0.108,0.698 v 0 c -0.117,0.348 -0.309,0.651 -0.582,0.899 v 0 c -0.362,0.329 -0.784,0.523 -1.272,0.544 v 0 c -0.231,0.009 -0.463,0.011 -0.695,0.011 v 0 c -0.08,0 -0.161,0 -0.242,0"
               style="fill:url(#linearGradient2896);stroke:none"
               id="path2898" />
          </g>
        </g>
      </g>
    </g>
    <g
       id="g2900">
      <g
         id="g2902">
        <g
           id="g2908">
          <g
             id="g2910">
            <path
               d="m 165.344,49.768 c -0.008,-0.906 0.719,-1.641 1.631,-1.65 v 0 c 0.901,-0.009 1.64,0.72 1.651,1.626 v 0 c 0.011,0.905 -0.727,1.651 -1.637,1.657 v 0 c -0.003,0 -0.005,0 -0.007,0 v 0 c -0.899,0 -1.63,-0.729 -1.638,-1.633"
               style="fill:url(#linearGradient2916);stroke:none"
               id="path2918" />
          </g>
        </g>
      </g>
    </g>
    <g
       id="g2920">
      <g
         id="g2922">
        <g
           id="g2928">
          <g
             id="g2930">
            <path
               d="m 163.675,48.766 c -0.082,-0.05 -0.161,-0.106 -0.238,-0.163 v 0 c -0.28,-0.212 -0.464,-0.474 -0.457,-0.844 v 0 c 0.005,-0.061 0.006,-0.123 0.017,-0.185 v 0 c 0.069,-0.407 0.25,-0.771 0.463,-1.117 v 0 c 0.232,-0.378 0.478,-0.749 0.731,-1.113 v 0 c 0.203,-0.295 0.44,-0.561 0.733,-0.77 v 0 c 0.255,-0.181 0.533,-0.273 0.845,-0.191 v 0 c 0.209,0.055 0.393,0.165 0.563,0.295 v 0 c 0.159,0.12 0.192,0.294 0.099,0.47 v 0 c -0.029,0.056 -0.065,0.107 -0.099,0.16 v 0 c -0.142,0.215 -0.278,0.433 -0.426,0.642 v 0 c -0.104,0.147 -0.285,0.176 -0.439,0.086 v 0 c -0.068,-0.039 -0.132,-0.084 -0.197,-0.126 v 0 c -0.147,-0.095 -0.311,-0.071 -0.413,0.072 v 0 c -0.114,0.157 -0.217,0.324 -0.323,0.487 v 0 c -0.092,0.145 -0.189,0.287 -0.273,0.435 v 0 c -0.084,0.149 -0.037,0.304 0.107,0.391 v 0 c 0.05,0.032 0.102,0.061 0.154,0.092 v 0 c 0.207,0.125 0.258,0.345 0.126,0.55 v 0 c -0.151,0.233 -0.305,0.464 -0.454,0.699 v 0 c -0.078,0.123 -0.193,0.189 -0.316,0.189 v 0 c -0.066,0 -0.136,-0.019 -0.203,-0.059"
               style="fill:url(#linearGradient2936);stroke:none"
               id="path2938" />
          </g>
        </g>
      </g>
    </g>
  </g>
</svg>
