<?xml version="1.0" encoding="UTF-8" standalone="no"?>
<svg
   xmlns:dc="http://purl.org/dc/elements/1.1/"
   xmlns:cc="http://creativecommons.org/ns#"
   xmlns:rdf="http://www.w3.org/1999/02/22-rdf-syntax-ns#"
   xmlns:svg="http://www.w3.org/2000/svg"
   xmlns="http://www.w3.org/2000/svg"
   xmlns:sodipodi="http://sodipodi.sourceforge.net/DTD/sodipodi-0.dtd"
   xmlns:inkscape="http://www.inkscape.org/namespaces/inkscape"
   version="1.1"
   id="svg7661"
   width="10.34634"
   height="9.1382561">
  <metadata
     id="metadata7667">
    <rdf:RDF>
      <cc:Work
         rdf:about="">
        <dc:format>image/svg+xml</dc:format>
        <dc:type
           rdf:resource="http://purl.org/dc/dcmitype/StillImage" />
      </cc:Work>
    </rdf:RDF>
  </metadata>
  <defs
     id="defs7665">
    <linearGradient
       x1="0"
       y1="0"
       x2="1"
       y2="0"
       gradientUnits="userSpaceOnUse"
       gradientTransform="matrix(7.1526303,0,0,-7.1526303,162.45236,30.847155)"
       spreadMethod="pad"
       id="linearGradient3076">
      <stop
         style="stop-opacity:1;stop-color:#bb7d2b"
         offset="0"
         id="stop3072" />
      <stop
         style="stop-opacity:1;stop-color:#fae784"
         offset="1"
         id="stop3074" />
    </linearGradient>
    <linearGradient
       x1="0"
       y1="0"
       x2="1"
       y2="0"
       gradientUnits="userSpaceOnUse"
       gradientTransform="matrix(3.2803631,0,0,-3.2803631,166.93134,28.311388)"
       spreadMethod="pad"
       id="linearGradient3096">
      <stop
         style="stop-opacity:1;stop-color:#bb7d2b"
         offset="0"
         id="stop3092" />
      <stop
         style="stop-opacity:1;stop-color:#fae784"
         offset="1"
         id="stop3094" />
    </linearGradient>
  </defs>
  <sodipodi:namedview
     pagecolor="#ffffff"
     bordercolor="#666666"
     borderopacity="1"
     objecttolerance="10"
     gridtolerance="10"
     guidetolerance="10"
     inkscape:pageopacity="0"
     inkscape:pageshadow="2"
     inkscape:window-width="640"
     inkscape:window-height="480"
     id="namedview7663" />
  <inkscape:clipboard
     style="font-variation-settings:normal;opacity:1;vector-effect:none;fill:#000000;fill-opacity:1;stroke-width:1.3333333;stroke-linecap:butt;stroke-linejoin:miter;stroke-miterlimit:4;stroke-dasharray:none;stroke-dashoffset:0;stroke-opacity:1;stop-color:#000000;stop-opacity:1"
     min="216.60299,1955.0573"
     max="226.94933,1964.1956" />
  <g
     id="g7659"
     transform="matrix(1.3333333,0,0,-1.3333333,-216.60299,44.702666)">
    <g
       id="g3060">
      <g
         id="g3062">
        <g
           id="g3068">
          <g
             id="g3070">
            <path
               d="m 163.239,33.527 c -0.473,0 -0.786,-0.318 -0.786,-0.796 v 0 c -0.001,-1.256 -0.001,-2.514 0,-3.77 v 0 c 0,-0.481 0.312,-0.794 0.786,-0.794 v 0 c 1.065,0 2.129,10e-4 3.194,0.002 v 0 c 0.063,0 0.127,0.005 0.199,0.01 v 0 c -0.011,0.734 0.262,1.313 0.857,1.745 v 0 c -0.189,0.173 -0.364,0.332 -0.548,0.5 v 0 c -0.248,-0.297 -0.531,-0.481 -0.909,-0.483 v 0 c -0.385,-0.002 -0.667,0.199 -0.916,0.479 v 0 c -0.476,-0.435 -0.938,-0.857 -1.4,-1.277 v 0 c -0.044,-0.041 -0.086,-0.098 -0.138,-0.111 v 0 c -0.06,-0.015 -0.156,-0.013 -0.187,0.024 v 0 c -0.032,0.034 -0.021,0.135 0.008,0.185 v 0 c 0.041,0.07 0.115,0.122 0.177,0.178 v 0 c 0.443,0.405 0.887,0.81 1.339,1.223 v 0 c -0.112,0.124 -0.215,0.241 -0.319,0.356 v 0 c -0.394,0.431 -0.786,0.861 -1.18,1.291 v 0 c -0.07,0.076 -0.102,0.153 -0.021,0.236 v 0 c 0.085,0.087 0.162,0.046 0.231,-0.028 v 0 c 0.034,-0.035 0.069,-0.068 0.1,-0.103 v 0 c 0.564,-0.618 1.129,-1.235 1.691,-1.853 v 0 c 0.181,-0.199 0.401,-0.296 0.673,-0.281 v 0 c 0.246,0.012 0.426,0.138 0.585,0.313 v 0 c 0.575,0.632 1.152,1.261 1.729,1.891 v 0 c 0.071,0.078 0.15,0.166 0.255,0.064 v 0 c 0.095,-0.091 0.044,-0.181 -0.034,-0.266 v 0 c -0.294,-0.317 -0.587,-0.636 -0.879,-0.956 v 0 c -0.198,-0.216 -0.393,-0.435 -0.598,-0.664 v 0 c 0.183,-0.165 0.35,-0.328 0.531,-0.477 v 0 c 0.047,-0.038 0.14,-0.056 0.199,-0.037 v 0 c 0.325,0.101 0.655,0.171 0.993,0.096 v 0 c 0.242,-0.055 0.477,-0.145 0.734,-0.225 v 0 0.18 c 0,0.854 0,1.708 -10e-4,2.562 v 0 c 0,0.484 -0.301,0.784 -0.789,0.786 v 0 c -0.929,0 -1.859,0 -2.788,0 v 0 c -0.929,0 -1.858,0 -2.788,0"
               style="fill:url(#linearGradient3076);stroke:none"
               id="path3078" />
          </g>
        </g>
      </g>
    </g>
    <g
       id="g3080">
      <g
         id="g3082">
        <g
           id="g3088">
          <g
             id="g3090">
            <path
               d="m 166.934,28.421 c -0.052,-0.938 0.668,-1.721 1.604,-1.747 v 0 c 0.436,-0.012 0.817,0.132 1.133,0.429 v 0 c 0.046,0.045 0.034,0.153 0.048,0.232 v 0 c -0.08,-0.005 -0.16,-0.005 -0.239,-0.016 v 0 c -0.025,-0.003 -0.046,-0.036 -0.069,-0.055 v 0 c -0.327,-0.259 -0.701,-0.343 -1.104,-0.263 v 0 c -0.649,0.128 -1.098,0.704 -1.071,1.349 v 0 c 0.027,0.678 0.519,1.218 1.18,1.295 v 0 c 0.653,0.078 1.265,-0.325 1.444,-0.967 v 0 c 0.04,-0.145 0.047,-0.31 0.029,-0.46 v 0 c -0.02,-0.151 -0.149,-0.215 -0.297,-0.206 v 0 c -0.14,0.009 -0.236,0.085 -0.268,0.226 v 0 c -0.012,0.052 -0.009,0.108 -0.015,0.162 v 0 c -0.041,0.369 -0.346,0.645 -0.72,0.651 v 0 c -0.389,0.006 -0.707,-0.269 -0.756,-0.656 v 0 c -0.046,-0.359 0.2,-0.711 0.557,-0.801 v 0 c 0.321,-0.08 0.576,0.036 0.792,0.279 v 0 c 0.338,-0.194 0.517,-0.211 0.738,-0.066 v 0 c 0.231,0.151 0.309,0.377 0.289,0.639 v 0 c -0.061,0.78 -0.698,1.425 -1.469,1.496 v 0 c -0.052,0.005 -0.104,0.007 -0.155,0.007 v 0 c -0.863,0 -1.604,-0.671 -1.651,-1.528 m 1.216,-0.097 c 0.005,0.242 0.199,0.433 0.436,0.431 v 0 c 0.249,-0.002 0.435,-0.199 0.43,-0.455 v 0 c -0.004,-0.235 -0.206,-0.439 -0.438,-0.439 v 0 c -0.237,0 -0.434,0.215 -0.428,0.463"
               style="fill:url(#linearGradient3096);stroke:none"
               id="path3098" />
          </g>
        </g>
      </g>
    </g>
  </g>
</svg>
