<?xml version="1.0" encoding="UTF-8" standalone="no"?>
<svg
   xmlns:dc="http://purl.org/dc/elements/1.1/"
   xmlns:cc="http://creativecommons.org/ns#"
   xmlns:rdf="http://www.w3.org/1999/02/22-rdf-syntax-ns#"
   xmlns:svg="http://www.w3.org/2000/svg"
   xmlns="http://www.w3.org/2000/svg"
   xmlns:sodipodi="http://sodipodi.sourceforge.net/DTD/sodipodi-0.dtd"
   xmlns:inkscape="http://www.inkscape.org/namespaces/inkscape"
   version="1.1"
   id="svg7791"
   width="14.613333"
   height="14.62">
  <metadata
     id="metadata7797">
    <rdf:RDF>
      <cc:Work
         rdf:about="">
        <dc:format>image/svg+xml</dc:format>
        <dc:type
           rdf:resource="http://purl.org/dc/dcmitype/StillImage" />
      </cc:Work>
    </rdf:RDF>
  </metadata>
  <defs
     id="defs7795">
    <linearGradient
       x1="0"
       y1="0"
       x2="1"
       y2="0"
       gradientUnits="userSpaceOnUse"
       gradientTransform="matrix(10.960581,0,0,-10.960581,479.31354,37.784019)"
       spreadMethod="pad"
       id="linearGradient2856">
      <stop
         style="stop-opacity:1;stop-color:#bb7d2b"
         offset="0"
         id="stop2852" />
      <stop
         style="stop-opacity:1;stop-color:#fae784"
         offset="1"
         id="stop2854" />
    </linearGradient>
  </defs>
  <sodipodi:namedview
     pagecolor="#ffffff"
     bordercolor="#666666"
     borderopacity="1"
     objecttolerance="10"
     gridtolerance="10"
     guidetolerance="10"
     inkscape:pageopacity="0"
     inkscape:pageshadow="2"
     inkscape:window-width="640"
     inkscape:window-height="480"
     id="namedview7793" />
  <inkscape:clipboard
     style="font-variation-settings:normal;opacity:1;vector-effect:none;fill:#000000;fill-opacity:1;stroke-width:1.3333333;stroke-linecap:butt;stroke-linejoin:miter;stroke-miterlimit:4;stroke-dasharray:none;stroke-dashoffset:0;stroke-opacity:1;stop-color:#000000;stop-opacity:1"
     min="639.08532,1942.0707"
     max="653.69865,1956.6907" />
  <g
     id="g2840"
     transform="matrix(1.3333333,0,0,-1.3333333,-639.08532,57.689332)">
    <g
       id="g2842">
      <g
         id="g2848">
        <g
           id="g2850">
          <path
             d="m 481.999,43.267 c -1.485,0 -2.685,-1.205 -2.685,-2.686 v 0 -5.593 c 0,-1.481 1.2,-2.686 2.685,-2.686 v 0 h 5.59 c 1.484,0 2.685,1.205 2.685,2.686 v 0 5.593 c 0,1.481 -1.201,2.686 -2.685,2.686 v 0 z m 0.603,-4.046 h 0.937 v 0.85 c 0,0.374 0.012,0.957 0.303,1.316 v 0 c 0.308,0.378 0.731,0.638 1.46,0.638 v 0 c 1.185,0 1.684,-0.159 1.684,-0.159 v 0 l -0.235,-1.297 c 0,0 -0.391,0.104 -0.758,0.104 v 0 c -0.363,0 -0.691,-0.124 -0.691,-0.463 v 0 -0.989 h 1.497 l -0.103,-1.27 h -1.394 v -4.408 h -1.763 v 4.408 h -0.937 z"
             style="fill:url(#linearGradient2856);stroke:none"
             id="path2858" />
        </g>
      </g>
    </g>
  </g>
</svg>
