<?xml version="1.0" encoding="UTF-8" standalone="no"?>
<svg
   xmlns:dc="http://purl.org/dc/elements/1.1/"
   xmlns:cc="http://creativecommons.org/ns#"
   xmlns:rdf="http://www.w3.org/1999/02/22-rdf-syntax-ns#"
   xmlns:svg="http://www.w3.org/2000/svg"
   xmlns="http://www.w3.org/2000/svg"
   xmlns:sodipodi="http://sodipodi.sourceforge.net/DTD/sodipodi-0.dtd"
   xmlns:inkscape="http://www.inkscape.org/namespaces/inkscape"
   version="1.1"
   id="svg7574"
   width="8.4698849"
   height="8.4896297">
  <metadata
     id="metadata7580">
    <rdf:RDF>
      <cc:Work
         rdf:about="">
        <dc:format>image/svg+xml</dc:format>
        <dc:type
           rdf:resource="http://purl.org/dc/dcmitype/StillImage" />
      </cc:Work>
    </rdf:RDF>
  </metadata>
  <defs
     id="defs7578">
    <linearGradient
       x1="0"
       y1="0"
       x2="1"
       y2="0"
       gradientUnits="userSpaceOnUse"
       gradientTransform="matrix(5.0216684,0,0,-5.0216684,163.15611,99.142151)"
       spreadMethod="pad"
       id="linearGradient2956">
      <stop
         style="stop-opacity:1;stop-color:#bb7d2b"
         offset="0"
         id="stop2952" />
      <stop
         style="stop-opacity:1;stop-color:#fae784"
         offset="1"
         id="stop2954" />
    </linearGradient>
    <linearGradient
       x1="0"
       y1="0"
       x2="1"
       y2="0"
       gradientUnits="userSpaceOnUse"
       gradientTransform="matrix(3.8460662,0,0,-3.8460662,165.66188,97.65419)"
       spreadMethod="pad"
       id="linearGradient2976">
      <stop
         style="stop-opacity:1;stop-color:#bb7d2b"
         offset="0"
         id="stop2972" />
      <stop
         style="stop-opacity:1;stop-color:#fae784"
         offset="1"
         id="stop2974" />
    </linearGradient>
  </defs>
  <sodipodi:namedview
     pagecolor="#ffffff"
     bordercolor="#666666"
     borderopacity="1"
     objecttolerance="10"
     gridtolerance="10"
     guidetolerance="10"
     inkscape:pageopacity="0"
     inkscape:pageshadow="2"
     inkscape:window-width="640"
     inkscape:window-height="480"
     id="namedview7576" />
  <inkscape:clipboard
     style="font-variation-settings:normal;opacity:1;vector-effect:none;fill:#000000;fill-opacity:1;stroke-width:1.3333333;stroke-linecap:butt;stroke-linejoin:miter;stroke-miterlimit:4;stroke-dasharray:none;stroke-dashoffset:0;stroke-opacity:1;stop-color:#000000;stop-opacity:1"
     min="217.54078,1863.368"
     max="226.01066,1871.8576" />
  <g
     id="g7572"
     transform="matrix(1.3333333,0,0,-1.3333333,-217.54078,136.392)">
    <g
       id="g2940">
      <g
         id="g2942">
        <g
           id="g2948">
          <g
             id="g2950">
            <path
               d="m 165.281,102.263 c -1.154,-0.178 -2.104,-1.252 -2.125,-2.422 v 0 c -0.01,-0.566 0.162,-1.07 0.442,-1.548 v 0 c 0.523,-0.882 1.229,-1.605 2.012,-2.257 v 0 c 0.021,-0.015 0.049,-0.025 0.085,-0.046 v 0 c 0,0.163 -0.007,0.309 0.003,0.453 v 0 0.027 0.677 l -0.229,0.269 c -0.248,0.247 0.061,0.482 0.061,0.482 v 0 c 0,0 1.457,1.34 1.856,1.701 v 0 c 0.213,0.196 0.387,-0.004 0.387,-0.004 v 0 l 0.345,-0.329 c 0,0 0.094,0.786 0.046,1.024 v 0 c -0.227,1.127 -1.246,2.004 -2.481,2.004 v 0 c -0.132,0 -0.266,-0.01 -0.402,-0.031 m -0.581,-2.49 c 0,0.54 0.459,0.996 1.001,0.992 v 0 c 0.539,-0.003 0.988,-0.464 0.991,-1.015 v 0 c 0.002,-0.539 -0.454,-0.979 -1.004,-0.979 v 0 c -0.56,0.001 -0.988,0.437 -0.988,1.002"
               style="fill:url(#linearGradient2956);stroke:none"
               id="path2958" />
          </g>
        </g>
      </g>
    </g>
    <g
       id="g2960">
      <g
         id="g2962">
        <g
           id="g2968">
          <g
             id="g2970">
            <path
               d="m 165.662,97.629 c 0.111,-0.123 0.216,-0.239 0.322,-0.354 v 0 c 0.05,0.032 0.09,0.06 0.148,0.097 v 0 c 0,-0.258 -0.002,-0.493 0,-0.726 v 0 c 0.003,-0.436 0.267,-0.712 0.699,-0.717 v 0 c 0.499,-0.005 0.999,0 1.5,0 v 0 c 0.158,0 0.309,0.03 0.435,0.131 v 0 c 0.173,0.137 0.267,0.316 0.269,0.538 v 0 0.779 c 0.061,-0.042 0.103,-0.073 0.149,-0.106 v 0 c 0.108,0.122 0.213,0.235 0.324,0.355 v 0 c -0.645,0.589 -1.278,1.168 -1.924,1.756 v 0 c -0.644,-0.586 -1.278,-1.164 -1.922,-1.753 m 1.567,0.032 h 0.722 V 96.94 h -0.722 z"
               style="fill:url(#linearGradient2976);stroke:none"
               id="path2978" />
          </g>
        </g>
      </g>
    </g>
  </g>
</svg>
