<?xml version="1.0" encoding="UTF-8" standalone="no"?>
<svg
   xmlns:dc="http://purl.org/dc/elements/1.1/"
   xmlns:cc="http://creativecommons.org/ns#"
   xmlns:rdf="http://www.w3.org/1999/02/22-rdf-syntax-ns#"
   xmlns:svg="http://www.w3.org/2000/svg"
   xmlns="http://www.w3.org/2000/svg"
   xmlns:sodipodi="http://sodipodi.sourceforge.net/DTD/sodipodi-0.dtd"
   xmlns:inkscape="http://www.inkscape.org/namespaces/inkscape"
   version="1.1"
   id="svg7766"
   width="8.5586662"
   height="8.5586662">
  <metadata
     id="metadata7772">
    <rdf:RDF>
      <cc:Work
         rdf:about="">
        <dc:format>image/svg+xml</dc:format>
        <dc:type
           rdf:resource="http://purl.org/dc/dcmitype/StillImage" />
      </cc:Work>
    </rdf:RDF>
  </metadata>
  <defs
     id="defs7770" />
  <sodipodi:namedview
     pagecolor="#ffffff"
     bordercolor="#666666"
     borderopacity="1"
     objecttolerance="10"
     gridtolerance="10"
     guidetolerance="10"
     inkscape:pageopacity="0"
     inkscape:pageshadow="2"
     inkscape:window-width="640"
     inkscape:window-height="480"
     id="namedview7768" />
  <inkscape:clipboard
     style="font-variation-settings:normal;opacity:1;vector-effect:none;fill:#000000;fill-opacity:1;stroke:none;stroke-width:1.3333333;stroke-linecap:butt;stroke-linejoin:miter;stroke-miterlimit:4;stroke-dasharray:none;stroke-dashoffset:0;stroke-opacity:1;stop-color:#000000;stop-opacity:1"
     min="418.78588,1926.8306"
     max="427.34454,1935.3893" />
  <path
     d="M 5.9026665,6.1706665 C 4.8119999,6.6839998 3.9013332,7.4679998 3.2413332,8.4319998 c 0.332,0.082667 0.6813334,0.1266667 1.04,0.1266667 0.6426667,0 1.256,-0.144 1.804,-0.4013334 0.088,-0.4306666 0.136,-0.8746666 0.136,-1.3333333 0,-0.164 -0.00933,-0.3293333 -0.02,-0.492 C 6.0919998,6.2973332 5.9879999,6.2453332 5.9026665,6.1706665 M 7.1519998,1.108 c -0.6853333,0.065333 -1.3399999,0.24 -1.9506666,0.496 0.004,0.033333 0.00667,0.061333 0.00667,0.094667 0,0.1413334 -0.036,0.2773334 -0.096,0.3973333 0.6106666,0.716 1.0826666,1.548 1.3826666,2.4613333 0.3693333,0.00667 0.6853333,0.2333333 0.8213333,0.5546667 0.412,-0.041333 0.8133333,-0.1213334 1.2013333,-0.2333334 0.026667,-0.196 0.041333,-0.3946666 0.041333,-0.5973333 0,-1.2586666 -0.5426667,-2.3879999 -1.4066667,-3.1733332 M 5.4426665,5.6879998 C 4.3866666,5.5106665 3.4093332,5.1066665 2.5559999,4.5319999 c -0.1373333,0.085333 -0.3,0.132 -0.4733333,0.132 -0.065333,0 -0.128,-0.00667 -0.1893333,-0.018667 -0.4080001,0.7746666 -0.6666667,1.6373333 -0.7426667,2.552 0.4093333,0.4359999 0.904,0.7893333 1.4613333,1.0253333 0.6973333,-1.068 1.6666667,-1.9493333 2.8306666,-2.5346667 m 1.3946667,0.616 c 0.012,0.1706667 0.021333,0.344 0.021333,0.52 0,0.308 -0.021333,0.6133333 -0.056,0.912 0.7253333,-0.5306666 1.276,-1.2826666 1.5533333,-2.1546666 -0.3266667,0.078667 -0.6666667,0.1346666 -1.012,0.1679999 -0.081333,0.2506667 -0.268,0.4506667 -0.5066666,0.5546667 m -1.18,-1.2293333 c 0.056,-0.1186666 0.136,-0.2213333 0.236,-0.308 -0.268,-0.8253333 -0.6946667,-1.5786666 -1.24,-2.2319999 -0.1106666,0.048 -0.2293333,0.072 -0.3573333,0.072 -0.1986667,0 -0.3773333,-0.062667 -0.5306667,-0.172 -0.328,0.252 -0.6333333,0.5346667 -0.9106666,0.8413333 0.088,0.1386667 0.1373333,0.304 0.1373333,0.48 0,0.094667 -0.013333,0.1853333 -0.044,0.272 0.8,0.5333333 1.7186667,0.8973333 2.7093333,1.0466666 M 4.2959999,0.78799998 c 0.2426667,0 0.46,0.0933333 0.62,0.24400002 0.476,-0.20400002 0.9773333,-0.36000002 1.4973333,-0.46000001 C 5.7853332,0.20933333 5.0559999,0 4.2813332,0 3.7506666,0 3.2439999,0.1 2.7746666,0.27466666 c 0.372,0.18266666 0.728,0.39733332 1.0586666,0.63999998 0.136,-0.0826667 0.2946667,-0.12666666 0.4626667,-0.12666666 M 1.1706666,3.7559999 c 0,-0.1293333 0.028,-0.2506667 0.077333,-0.36 C 0.95599992,3.0759999 0.69066665,2.7266666 0.45733332,2.3586666 0.16533333,2.9359999 0,3.5906666 0,4.2813332 c 0,0.7986667 0.22133333,1.5466666 0.60133332,2.188 0.13999994,-0.7706667 0.3986666,-1.4986667 0.75599988,-2.164 C 1.2426666,4.1506666 1.1706666,3.9626666 1.1706666,3.7559999 m 0.912,-0.9106666 c 0.090667,0 0.1813333,0.014667 0.268,0.037333 0.3213333,-0.356 0.6746666,-0.684 1.0613333,-0.9746666 -0.018667,-0.068 -0.026667,-0.1386667 -0.026667,-0.2093334 0,-0.104 0.017333,-0.2013333 0.046667,-0.2893333 C 3.0013332,1.1 2.5333333,0.83999998 2.0319999,0.63733332 1.5666666,0.92799998 1.1559999,1.304 0.83199993,1.7453333 1.0733333,2.1759999 1.3626666,2.5746666 1.6866666,2.9359999 c 0.1213333,-0.058667 0.2533333,-0.090667 0.396,-0.090667"
     style="fill:#000000;fill-opacity:1;fill-rule:nonzero;stroke:none;stroke-width:1.33333"
     id="path3110" />
</svg>
