<?xml version="1.0" encoding="UTF-8" standalone="no"?>
<svg
   xmlns:dc="http://purl.org/dc/elements/1.1/"
   xmlns:cc="http://creativecommons.org/ns#"
   xmlns:rdf="http://www.w3.org/1999/02/22-rdf-syntax-ns#"
   xmlns:svg="http://www.w3.org/2000/svg"
   xmlns="http://www.w3.org/2000/svg"
   xmlns:sodipodi="http://sodipodi.sourceforge.net/DTD/sodipodi-0.dtd"
   xmlns:inkscape="http://www.inkscape.org/namespaces/inkscape"
   version="1.1"
   id="svg3993"
   width="8.5586662"
   height="8.557333">
  <metadata
     id="metadata3999">
    <rdf:RDF>
      <cc:Work
         rdf:about="">
        <dc:format>image/svg+xml</dc:format>
        <dc:type
           rdf:resource="http://purl.org/dc/dcmitype/StillImage" />
      </cc:Work>
    </rdf:RDF>
  </metadata>
  <defs
     id="defs3997">
    <linearGradient
       x1="0"
       y1="0"
       x2="1"
       y2="0"
       gradientUnits="userSpaceOnUse"
       gradientTransform="matrix(6.4189453,0,0,-6.4189453,312.07031,47.825718)"
       spreadMethod="pad"
       id="linearGradient2946">
      <stop
         style="stop-opacity:1;stop-color:#bb7d2b"
         offset="0"
         id="stop2942" />
      <stop
         style="stop-opacity:1;stop-color:#fae784"
         offset="1"
         id="stop2944" />
    </linearGradient>
  </defs>
  <sodipodi:namedview
     pagecolor="#ffffff"
     bordercolor="#666666"
     borderopacity="1"
     objecttolerance="10"
     gridtolerance="10"
     guidetolerance="10"
     inkscape:pageopacity="0"
     inkscape:pageshadow="2"
     inkscape:window-width="640"
     inkscape:window-height="480"
     id="namedview3995" />
  <inkscape:clipboard
     style="font-variation-settings:normal;opacity:1;vector-effect:none;fill:#000000;fill-opacity:1;stroke-width:1.3333333;stroke-linecap:butt;stroke-linejoin:miter;stroke-miterlimit:4;stroke-dasharray:none;stroke-dashoffset:0;stroke-opacity:1;stop-color:#000000;stop-opacity:1"
     min="416.09332,1931.7133"
     max="424.65199,1940.2707" />
  <g
     id="g2930"
     transform="matrix(1.3333333,0,0,-1.3333333,-416.09332,68.046665)">
    <g
       id="g2932">
      <g
         id="g2938">
        <g
           id="g2940">
          <path
             d="m 314.151,50.829 c 0.278,-0.136 0.547,-0.298 0.794,-0.479 v 0 c 0.102,0.061 0.221,0.094 0.347,0.094 v 0 c 0.181,0 0.344,-0.07 0.465,-0.184 v 0 c 0.357,0.154 0.733,0.271 1.123,0.346 v 0 c -0.471,0.272 -1.018,0.429 -1.599,0.429 v 0 c -0.398,0 -0.778,-0.075 -1.13,-0.206 m -1.457,-1.102 c 0.181,-0.323 0.398,-0.622 0.641,-0.894 v 0 c 0.091,0.044 0.191,0.069 0.297,0.069 v 0 l 0.201,-0.029 c 0.241,0.268 0.506,0.513 0.796,0.731 v 0 l -0.02,0.158 0.036,0.217 c -0.324,0.231 -0.676,0.426 -1.052,0.578 v 0 c -0.348,-0.218 -0.656,-0.499 -0.899,-0.83 m 3.277,0.105 0.005,-0.07 c 0,-0.106 -0.027,-0.208 -0.072,-0.299 v 0 c 0.459,-0.537 0.811,-1.161 1.037,-1.846 v 0 c 0.277,-0.004 0.514,-0.174 0.616,-0.416 v 0 c 0.309,0.032 0.61,0.091 0.901,0.175 v 0 c 0.02,0.148 0.031,0.296 0.031,0.448 v 0 c 0,0.944 -0.407,1.791 -1.055,2.38 v 0 c -0.514,-0.049 -1.006,-0.179 -1.463,-0.372 m -3.901,-2.008 c 0,-0.598 0.166,-1.16 0.451,-1.64 v 0 c 0.105,0.576 0.299,1.124 0.566,1.623 v 0 c -0.085,0.115 -0.139,0.257 -0.139,0.41 v 0 c 0,0.099 0.021,0.189 0.058,0.271 v 0 c -0.219,0.241 -0.418,0.503 -0.593,0.779 v 0 c -0.218,-0.434 -0.343,-0.925 -0.343,-1.443 m 2.141,0.754 c 0.066,-0.103 0.103,-0.227 0.103,-0.361 v 0 l -0.033,-0.202 c 0.6,-0.4 1.29,-0.674 2.032,-0.786 v 0 l 0.177,0.231 c -0.201,0.619 -0.522,1.185 -0.93,1.674 v 0 c -0.082,-0.035 -0.172,-0.054 -0.268,-0.054 v 0 c -0.149,0 -0.283,0.047 -0.397,0.129 v 0 c -0.247,-0.189 -0.476,-0.4 -0.684,-0.631 m -0.579,-1.041 -0.142,0.014 c -0.305,-0.58 -0.5,-1.228 -0.557,-1.913 v 0 c 0.307,-0.327 0.678,-0.593 1.096,-0.769 v 0 c 0.523,0.8 1.25,1.461 2.123,1.9 v 0 c -0.792,0.134 -1.526,0.436 -2.165,0.868 v 0 c -0.103,-0.065 -0.225,-0.1 -0.355,-0.1 m 3.946,-0.814 c -0.062,-0.188 -0.201,-0.338 -0.38,-0.415 v 0 c 0.009,-0.128 0.016,-0.259 0.016,-0.391 v 0 c 0,-0.23 -0.016,-0.46 -0.042,-0.684 v 0 c 0.544,0.398 0.957,0.962 1.165,1.617 v 0 c -0.246,-0.06 -0.5,-0.102 -0.759,-0.127 m -3.077,-2.012 c 0.249,-0.062 0.511,-0.094 0.78,-0.094 v 0 c 0.481,0 0.941,0.108 1.352,0.3 v 0 c 0.067,0.323 0.103,0.656 0.103,1 v 0 c 0,0.123 -0.006,0.247 -0.015,0.369 v 0 l -0.224,0.122 c -0.818,-0.386 -1.501,-0.973 -1.996,-1.697"
             style="fill:url(#linearGradient2946);stroke:none"
             id="path2948" />
        </g>
      </g>
    </g>
  </g>
</svg>
