<?xml version="1.0" encoding="UTF-8" standalone="no"?>
<svg
   xmlns:dc="http://purl.org/dc/elements/1.1/"
   xmlns:cc="http://creativecommons.org/ns#"
   xmlns:rdf="http://www.w3.org/1999/02/22-rdf-syntax-ns#"
   xmlns:svg="http://www.w3.org/2000/svg"
   xmlns="http://www.w3.org/2000/svg"
   xmlns:sodipodi="http://sodipodi.sourceforge.net/DTD/sodipodi-0.dtd"
   xmlns:inkscape="http://www.inkscape.org/namespaces/inkscape"
   version="1.1"
   id="svg4076"
   width="11.629333"
   height="9.8599997">
  <metadata
     id="metadata4082">
    <rdf:RDF>
      <cc:Work
         rdf:about="">
        <dc:format>image/svg+xml</dc:format>
        <dc:type
           rdf:resource="http://purl.org/dc/dcmitype/StillImage" />
      </cc:Work>
    </rdf:RDF>
  </metadata>
  <defs
     id="defs4080">
    <linearGradient
       x1="0"
       y1="0"
       x2="1"
       y2="0"
       gradientUnits="userSpaceOnUse"
       gradientTransform="matrix(17.09804,-15.529411,-15.529411,-17.09804,308.18784,35.269649)"
       spreadMethod="pad"
       id="linearGradient2566">
      <stop
         style="stop-opacity:1;stop-color:#bb7d2b"
         offset="0"
         id="stop2562" />
      <stop
         style="stop-opacity:1;stop-color:#fae784"
         offset="1"
         id="stop2564" />
    </linearGradient>
    <linearGradient
       x1="0"
       y1="0"
       x2="1"
       y2="0"
       gradientUnits="userSpaceOnUse"
       gradientTransform="matrix(17.09804,-15.529411,-15.529411,-17.09804,308.59558,35.718567)"
       spreadMethod="pad"
       id="linearGradient2586">
      <stop
         style="stop-opacity:1;stop-color:#bb7d2b"
         offset="0"
         id="stop2582" />
      <stop
         style="stop-opacity:1;stop-color:#fae784"
         offset="1"
         id="stop2584" />
    </linearGradient>
    <linearGradient
       x1="0"
       y1="0"
       x2="1"
       y2="0"
       gradientUnits="userSpaceOnUse"
       gradientTransform="matrix(17.09804,-15.529411,-15.529411,-17.09804,309.74091,36.979603)"
       spreadMethod="pad"
       id="linearGradient2606">
      <stop
         style="stop-opacity:1;stop-color:#bb7d2b"
         offset="0"
         id="stop2602" />
      <stop
         style="stop-opacity:1;stop-color:#fae784"
         offset="1"
         id="stop2604" />
    </linearGradient>
    <linearGradient
       x1="0"
       y1="0"
       x2="1"
       y2="0"
       gradientUnits="userSpaceOnUse"
       gradientTransform="matrix(17.09804,-15.529411,-15.529411,-17.09804,308.98843,36.1511)"
       spreadMethod="pad"
       id="linearGradient2626">
      <stop
         style="stop-opacity:1;stop-color:#bb7d2b"
         offset="0"
         id="stop2622" />
      <stop
         style="stop-opacity:1;stop-color:#fae784"
         offset="1"
         id="stop2624" />
    </linearGradient>
  </defs>
  <sodipodi:namedview
     pagecolor="#ffffff"
     bordercolor="#666666"
     borderopacity="1"
     objecttolerance="10"
     gridtolerance="10"
     guidetolerance="10"
     inkscape:pageopacity="0"
     inkscape:pageshadow="2"
     inkscape:window-width="640"
     inkscape:window-height="480"
     id="namedview4078" />
  <inkscape:clipboard
     style="font-variation-settings:normal;opacity:1;vector-effect:none;fill:#000000;fill-opacity:1;stroke-width:1.3333333;stroke-linecap:butt;stroke-linejoin:miter;stroke-miterlimit:4;stroke-dasharray:none;stroke-dashoffset:0;stroke-opacity:1;stop-color:#000000;stop-opacity:1"
     min="414.55732,1952.3453"
     max="426.18666,1962.2053" />
  <g
     id="g4074"
     transform="matrix(1.3333333,0,0,-1.3333333,-414.55732,47.414665)">
    <g
       id="g2550">
      <g
         id="g2552">
        <g
           id="g2558">
          <g
             id="g2560">
            <path
               d="m 312.666,31.578 c -0.109,0 -0.196,-0.088 -0.196,-0.195 v 0 c 0,-0.112 0.087,-0.2 0.196,-0.2 v 0 h 0.394 v -1.772 c 0,-0.108 0.089,-0.195 0.197,-0.195 v 0 c 0.108,0 0.198,0.087 0.198,0.195 v 0 1.772 h 0.392 c 0.108,0 0.2,0.088 0.2,0.2 v 0 c 0,0.107 -0.092,0.195 -0.2,0.195 v 0 z"
               style="fill:url(#linearGradient2566);stroke:none"
               id="path2568" />
          </g>
        </g>
      </g>
    </g>
    <path
       d="m 314.664,31.453 -0.786,-1.967 c -0.011,-0.024 -0.014,-0.048 -0.014,-0.075 v 0 c 0,-0.097 0.081,-0.195 0.196,-0.195 v 0 c 0.078,0 0.152,0.047 0.182,0.125 v 0 l 0.149,0.367 h 0.915 l 0.148,-0.367 c 0.03,-0.078 0.105,-0.125 0.182,-0.125 v 0 c 0.119,0 0.196,0.093 0.196,0.195 v 0 c 0,0.023 -0.003,0.051 -0.014,0.075 v 0 l -0.786,1.967 c -0.03,0.074 -0.104,0.125 -0.182,0.125 v 0 c -0.08,0 -0.155,-0.051 -0.186,-0.125 m 0.186,-0.6 0.297,-0.753 h -0.598 z"
       style="fill:url(#linearGradient2586);stroke:none"
       id="path2588" />
    <g
       id="g2590">
      <g
         id="g2592">
        <g
           id="g2598">
          <g
             id="g2600">
            <path
               d="m 317.516,31.495 -0.53,-0.754 -0.525,0.754 c -0.037,0.053 -0.098,0.083 -0.163,0.083 v 0 c -0.121,0 -0.196,-0.104 -0.196,-0.205 v 0 c 0,-0.041 0.013,-0.074 0.037,-0.105 v 0 l 0.608,-0.87 -0.608,-0.872 c -0.027,-0.037 -0.037,-0.078 -0.037,-0.115 v 0 c 0,-0.102 0.088,-0.195 0.196,-0.195 v 0 c 0.065,0 0.126,0.03 0.163,0.083 v 0 l 0.525,0.754 0.53,-0.754 c 0.037,-0.053 0.099,-0.083 0.162,-0.083 v 0 c 0.105,0 0.197,0.093 0.197,0.195 v 0 c 0,0.041 -0.015,0.078 -0.037,0.115 v 0 l -0.609,0.872 0.609,0.87 c 0.022,0.034 0.037,0.074 0.037,0.115 v 0 c 0,0.102 -0.089,0.195 -0.197,0.195 v 0 c -0.063,0 -0.125,-0.03 -0.162,-0.083"
               style="fill:url(#linearGradient2606);stroke:none"
               id="path2608" />
          </g>
        </g>
      </g>
    </g>
    <g
       id="g2610">
      <g
         id="g2612">
        <g
           id="g2618">
          <g
             id="g2620">
            <path
               d="m 314.915,35.438 c -0.223,-0.169 -0.305,-0.418 -0.246,-0.697 v 0 c 0.012,-0.059 -0.015,-0.154 -0.06,-0.197 v 0 c -0.645,-0.614 -1.299,-1.221 -1.944,-1.837 v 0 h -0.385 c -0.75,0 -1.362,-0.609 -1.362,-1.36 v 0 -1.82 c 0,-0.751 0.612,-1.361 1.362,-1.361 v 0 h 6 c 0.751,0 1.36,0.61 1.36,1.361 v 0 1.82 c 0,0.751 -0.609,1.36 -1.36,1.36 v 0 h -0.333 c -0.629,0.584 -1.252,1.171 -1.881,1.752 v 0 c -0.109,0.101 -0.173,0.181 -0.135,0.35 v 0 c 0.061,0.274 -0.048,0.506 -0.291,0.658 v 0 c -0.101,0.063 -0.22,0.094 -0.339,0.094 v 0 c -0.14,0 -0.279,-0.042 -0.386,-0.123 m 0.38,-0.883 c -0.202,10e-4 -0.353,0.154 -0.354,0.358 v 0 c 0,0.201 0.153,0.357 0.355,0.36 v 0 c 0.199,0.002 0.361,-0.153 0.37,-0.351 v 0 c 0.008,-0.198 -0.161,-0.367 -0.368,-0.367 v 0 c -10e-4,0 -0.002,0 -0.003,0 m -0.409,-0.158 c 0.254,-0.156 0.502,-0.181 0.757,-0.041 v 0 c 0.032,0.016 0.097,0.007 0.124,-0.016 v 0 c 0.583,-0.542 1.163,-1.087 1.744,-1.633 v 0 h -4.428 c 0.606,0.568 1.201,1.126 1.803,1.69 m -3.222,-4.87 v 1.82 c 0,0.338 0.276,0.615 0.616,0.615 v 0 h 6 c 0.339,0 0.615,-0.277 0.615,-0.615 v 0 -1.82 c 0,-0.339 -0.276,-0.615 -0.615,-0.615 v 0 h -6 c -0.34,0 -0.616,0.276 -0.616,0.615"
               style="fill:url(#linearGradient2626);stroke:none"
               id="path2628" />
          </g>
        </g>
      </g>
    </g>
  </g>
</svg>
